<?xml version="1.0" encoding="UTF-8" standalone="no"?>
<svg
   width="32"
   height="32"
   version="1"
   id="svg898"
   sodipodi:docname="bitwarden-border.svg"
   inkscape:version="1.1.2 (0a00cf5339, 2022-02-04)"
   xmlns:inkscape="http://www.inkscape.org/namespaces/inkscape"
   xmlns:sodipodi="http://sodipodi.sourceforge.net/DTD/sodipodi-0.dtd"
   xmlns="http://www.w3.org/2000/svg"
   xmlns:svg="http://www.w3.org/2000/svg">
  <defs
     id="defs902" />
  <sodipodi:namedview
     id="namedview900"
     pagecolor="#ffffff"
     bordercolor="#666666"
     borderopacity="1.0"
     inkscape:pageshadow="2"
     inkscape:pageopacity="0.0"
     inkscape:pagecheckerboard="0"
     showgrid="false"
     inkscape:zoom="23.125"
     inkscape:cx="11.07027"
     inkscape:cy="16"
     inkscape:window-width="1898"
     inkscape:window-height="1013"
     inkscape:window-x="9"
     inkscape:window-y="54"
     inkscape:window-maximized="1"
     inkscape:current-layer="svg898"
     showguides="false" />
  <rect
     style="fill:#175ddc;stroke:none;stroke-opacity:0"
     width="29"
     height="29"
     x="1"
     y="1"
     rx="1.45"
     ry="1.45"
     id="rect890" />
  <path
     style="opacity:1;mix-blend-mode:normal;fill:#124ab0;fill-opacity:1"
     d="m 2.4492,1.2575816 c -0.8033,0 -1.4492,0.6459 -1.4492,1.4492 v 1 c 0,-0.8033 0.6459,-1.4492 1.4492,-1.4492 H 28.551 c 0.803,0 1.449,0.6459 1.449,1.4492 v -1 c 0,-0.8033 -0.646,-1.4492 -1.449,-1.4492 z"
     id="path892" />
  <rect
     style="fill:#175ddc;fill-opacity:0;stroke:#ffffff;stroke-opacity:1"
     width="29"
     height="29"
     x="1"
     y="1"
     rx="1.45"
     ry="1.45"
     id="rect890-3" />
  <path
     style="opacity:0.2"
     d="M 15.5,7 C 15.5,7 7.6049,7.0047 7.4043,7.1249 6.9785,7.3802 7,7.0641 7,13.018 7,19.059 6.9923,18.938 7.457,20.109 7.9916,21.457 8.8523,22.596 10.266,23.834 11.452,24.873 12.858,25.813 14.426,26.611 14.956,26.881 15.231,27.004 15.5,27 15.769,27.004 16.044,26.881 16.574,26.611 18.142,25.813 19.548,24.873 20.734,23.834 22.148,22.596 23.008,21.457 23.543,20.109 24.008,18.938 24,19.059 24,13.018 24,7.0641 24.022,7.3802 23.596,7.1249 23.395,7.0046 15.5,7 15.5,7 Z M 20.979,10.014 C 20.979,10.014 20.993,17.548 20.951,18.197 20.909,18.847 20.997,18.391 20.754,19.004 20.413,19.865 19.939,20.544 18.758,21.578 17.861,22.363 16.732,23.09 15.5,23.746 L 15,23.451 V 10.002 Z"
     id="path894" />
  <path
     style="fill:#efefef"
     d="M 15.5,6 C 15.5,6 7.6049,6.0047 7.4043,6.1249 6.9785,6.3802 7,6.0641 7,12.018 7,18.059 6.9923,17.938 7.457,19.109 7.9916,20.457 8.8523,21.596 10.266,22.834 11.452,23.873 12.858,24.813 14.426,25.611 14.956,25.881 15.231,26.004 15.5,26 15.769,26.004 16.044,25.881 16.574,25.611 18.142,24.813 19.548,23.873 20.734,22.834 22.148,21.596 23.008,20.457 23.543,19.109 24.008,17.938 24,18.059 24,12.018 24,6.0641 24.022,6.3802 23.596,6.1249 23.395,6.0046 15.5,6 15.5,6 Z M 20.979,9.0136 C 20.979,9.0136 20.993,16.548 20.951,17.197 20.909,17.847 20.997,17.391 20.754,18.004 20.413,18.865 19.939,19.544 18.758,20.578 17.861,21.363 16.732,22.09 15.5,22.746 L 15,22.451 V 9.0019 Z"
     id="path896" />
</svg>
